<?xml version="1.0" standalone="no"?>
<!DOCTYPE svg PUBLIC "-//W3C//DTD SVG 20010904//EN"
 "http://www.w3.org/TR/2001/REC-SVG-20010904/DTD/svg10.dtd">
<svg version="1.0" xmlns="http://www.w3.org/2000/svg"
 width="128.000000pt" height="128.000000pt" viewBox="0 0 128.000000 128.000000"
 preserveAspectRatio="xMidYMid meet">
<metadata>
Created by potrace 1.13, written by Peter Selinger 2001-2015
</metadata>
<g transform="translate(0.000000,128.000000) scale(0.100000,-0.100000)"
fill="#000000" stroke="none">
<path d="M500 1264 c-177 -38 -348 -171 -429 -334 -94 -193 -94 -390 1 -580
107 -213 331 -350 573 -350 94 0 99 5 79 63 l-16 47 -72 0 c-141 0 -269 53
-371 155 -334 334 -97 906 375 905 96 -1 148 -13 236 -56 172 -85 277 -250
293 -458 l6 -89 43 -15 c24 -8 46 -11 50 -7 13 13 5 191 -12 254 -89 334 -420
538 -756 465z"/>
<path d="M550 1057 c-221 -50 -368 -266 -330 -484 24 -141 111 -255 237 -315
61 -29 196 -58 209 -45 4 3 4 17 0 30 -5 22 -12 25 -69 29 -120 10 -234 91
-294 208 -42 82 -42 238 0 320 37 72 105 141 176 176 50 26 66 29 156 29 93 0
105 -2 167 -33 114 -56 191 -167 205 -293 3 -32 9 -59 14 -59 4 0 14 -3 23 -6
24 -9 21 77 -4 159 -62 200 -286 330 -490 284z"/>
<path d="M569 897 c-111 -31 -199 -145 -199 -257 0 -114 96 -233 209 -259 41
-9 43 -8 37 12 -3 12 -6 25 -6 29 0 3 -13 9 -29 13 -48 10 -107 59 -131 110
-32 66 -26 158 15 217 96 135 305 111 369 -44 14 -34 49 -58 63 -44 12 11 -18
85 -50 128 -62 82 -181 122 -278 95z"/>
<path d="M592 735 c-46 -20 -68 -75 -53 -127 14 -47 50 -72 103 -72 l41 -1 81
-250 c93 -283 74 -267 151 -135 21 36 40 67 42 69 2 3 53 -44 113 -104 l109
-109 48 44 c26 24 50 45 52 47 3 2 -44 53 -104 113 -60 60 -107 111 -104 113
2 3 44 26 92 52 48 26 86 49 84 51 -2 3 -116 44 -253 92 l-249 88 -6 42 c-10
77 -79 118 -147 87z"/>
</g>
</svg>
